<svg xmlns="http://www.w3.org/2000/svg" width="32" height="32" viewBox="0 0 16 16" fill="none">
  <g clip-path="url(#clip0_1775_17528)">
    <path d="M0.444444 0.799988H0V1.69999H0.444444H1.86667L4.01111 11.2484L4.08889 11.6H4.44444H13.7778H14.2222V10.7H13.7778H4.8L4.39722 8.89999H13.7778L15.7222 2.59999L16 1.69999H15.0694H2.77778L2.65556 1.15155L2.57778 0.799988H2.22222H0.444444ZM2.98056 2.59999H14.7917L13.125 7.99999H4.19444L2.98056 2.59999ZM5.11111 12.95C5.28792 12.95 5.45749 13.0211 5.58252 13.1477C5.70754 13.2743 5.77778 13.446 5.77778 13.625C5.77778 13.804 5.70754 13.9757 5.58252 14.1023C5.45749 14.2289 5.28792 14.3 5.11111 14.3C4.9343 14.3 4.76473 14.2289 4.63971 14.1023C4.51468 13.9757 4.44444 13.804 4.44444 13.625C4.44444 13.446 4.51468 13.2743 4.63971 13.1477C4.76473 13.0211 4.9343 12.95 5.11111 12.95ZM5.11111 15.2C5.52367 15.2 5.91933 15.0341 6.21105 14.7387C6.50278 14.4433 6.66667 14.0427 6.66667 13.625C6.66667 13.2073 6.50278 12.8067 6.21105 12.5113C5.91933 12.2159 5.52367 12.05 5.11111 12.05C4.69855 12.05 4.30289 12.2159 4.01117 12.5113C3.71944 12.8067 3.55556 13.2073 3.55556 13.625C3.55556 14.0427 3.71944 14.4433 4.01117 14.7387C4.30289 15.0341 4.69855 15.2 5.11111 15.2ZM12 13.625C12 13.446 12.0702 13.2743 12.1953 13.1477C12.3203 13.0211 12.4899 12.95 12.6667 12.95C12.8435 12.95 13.013 13.0211 13.1381 13.1477C13.2631 13.2743 13.3333 13.446 13.3333 13.625C13.3333 13.804 13.2631 13.9757 13.1381 14.1023C13.013 14.2289 12.8435 14.3 12.6667 14.3C12.4899 14.3 12.3203 14.2289 12.1953 14.1023C12.0702 13.9757 12 13.804 12 13.625ZM14.2222 13.625C14.2222 13.2073 14.0583 12.8067 13.7666 12.5113C13.4749 12.2159 13.0792 12.05 12.6667 12.05C12.2541 12.05 11.8584 12.2159 11.5667 12.5113C11.275 12.8067 11.1111 13.2073 11.1111 13.625C11.1111 14.0427 11.275 14.4433 11.5667 14.7387C11.8584 15.0341 12.2541 15.2 12.6667 15.2C13.0792 15.2 13.4749 15.0341 13.7666 14.7387C14.0583 14.4433 14.2222 14.0427 14.2222 13.625Z" fill="#1D1D1B"/>
  </g>
  <defs>
    <clipPath id="clip0_1775_17528">
      <rect width="16" height="16" fill="white"/>
    </clipPath>
  </defs>
</svg>