<svg width="1728" height="710" viewBox="0 0 1728 710" fill="none" xmlns="http://www.w3.org/2000/svg">
<g clip-path="url(#clip0_0_62)">
<g clip-path="url(#clip1_0_62)">
<path d="M350.626 313.938H591.408V753.12H350.626V313.938Z" stroke="#231F20" stroke-width="0.5" stroke-miterlimit="10"/>
<path d="M762.6 -14V581.666C762.6 676.358 685.837 753.119 591.146 753.119V-14H762.6Z" stroke="#231F20" stroke-width="0.5" stroke-miterlimit="10"/>
<path d="M350.626 313.938V752.992C229.385 752.992 131.1 654.705 131.1 533.464C131.1 412.222 229.385 313.938 350.626 313.938Z" stroke="#231F20" stroke-width="0.5" stroke-miterlimit="10"/>
<path d="M897.432 424.793C823.111 424.793 762.862 364.544 762.862 290.223C762.862 215.902 823.111 155.653 897.432 155.653C971.753 155.653 1032 215.902 1032 290.223C1032 364.544 971.753 424.793 897.432 424.793Z" stroke="#231F20" stroke-width="0.5" stroke-miterlimit="10"/>
</g>
</g>
<defs>
<clipPath id="clip0_0_62">
<rect width="1728" height="710" fill="white"/>
</clipPath>
<clipPath id="clip1_0_62">
<rect width="1087" height="768" fill="white" transform="matrix(-1 0 0 1 1071 -1)"/>
</clipPath>
</defs>
</svg>
